{"title":"Spanish Beauty - A Beautiful Wife 2010 Hindi Dubbed 720p WEB-DL ","magnet":"magnet:?xt=urn:btih:68a1ca8cd0b8ac280ca037033b6943db4c5b9fea&dn=Spanish+Beauty+-+A+Beautiful+Wife+2010+Hindi+Dubbed+720p+WEB-DL+&tr=udp%3A%2F%2Ftracker.leechers-paradise.org%3A6969&tr=udp%3A%2F%2Fzer0day.ch%3A1337&tr=udp%3A%2F%2Fopen.demonii.com%3A1337&tr=udp%3A%2F%2Ftracker.coppersurfer.tk%3A6969&tr=udp%3A%2F%2Fexodus.desync.com%3A6969","uploader":"SkTaRa","categoryP":"video","categoryS":"hd___movies","size":"704812028","seeders":"8","leechers":"22","description":"===================================================================\r\nGeneral\r\nComplete name               : Spanish Beauty - A Beautiful Wife 2010 Hindi Dubbed 720p WEB-DL x264 AAC { TaRa }.mkv\r\nFormat                      : Matroska\r\nFormat version              : Version 4 / Version 2\r\nFile size                   : 672 MiB\r\nDuration                    : 1h 28mn\r\nOverall bit rate mode       : Variable\r\nOverall bit rate            : 1 063 Kbps\r\n===================================================================\r\nVideo\r\nID                          : 1\r\nFormat                      : AVC\r\nFormat/Info                 : Advanced Video Codec\r\nFormat profile              : <a class=\"__cf_email__\" href=\"/cdn-cgi/l/email-protection\" data-cfemail=\"4b03222c230b077f657a\">[email&#xA0;protected]</a><script data-cfhash=\"f9e31\" type=\"text/javascript\">/* <![CDATA[ */!function(t,e,r,n,c,a,p){try{t=document.currentScript||function(){for(t=document.getElementsByTagName('script'),e=t.length;e--;)if(t[e].getAttribute('data-cfhash'))return t[e]}();if(t&&(c=t.previousSibling)){p=t.parentNode;if(a=c.getAttribute('data-cfemail')){for(e='',r='0x'+a.substr(0,2)|0,n=2;a.length-n;n+=2)e+='%'+('0'+('0x'+a.substr(n,2)^r).toString(16)).slice(-2);p.replaceChild(document.createTextNode(decodeURIComponent(e)),c)}p.removeChild(t)}}catch(u){}}()/* ]]> */</script>\r\nFormat settings, CABAC      : Yes\r\nFormat settings, ReFrames   : 3 frames\r\nCodec ID                    : V_MPEG4/ISO/AVC\r\nDuration                    : 1h 28mn\r\nBit rate mode               : Variable\r\nBit rate                    : 936 Kbps\r\nMaximum bit rate            : 1 000 Kbps\r\nWidth                       : 1 280 pixels\r\nHeight                      : 544 pixels\r\nDisplay aspect ratio        : 2.35:1\r\nFrame rate mode             : Constant\r\nFrame rate                  : 25.000 fps\r\nColor space                 : YUV\r\nChroma subsampling          : 4:2:0\r\nBit depth                   : 8 bits\r\nScan type                   : Progressive\r\nBits/(Pixel*Frame)          : 0.054\r\nStream size                 : 591 MiB (88%)\r\nTitle                       : .....::::: TaRa :::::.....\r\nLanguage                    : Hindi\r\nDefault                     : Yes\r\nForced                      : No\r\n===================================================================\r\nAudio\r\nID                          : 2\r\nFormat                      : AAC\r\nFormat/Info                 : Advanced Audio Codec\r\nFormat profile              : LC\r\nCodec ID                    : A_AAC\r\nDuration                    : 1h 28mn\r\nBit rate                    : 126 Kbps\r\nChannel(s)                  : 2 channels\r\nChannel positions           : Front: L R\r\nSampling rate               : 44.1 KHz\r\nFrame rate                  : 43.066 fps (1024 spf)\r\nCompression mode            : Lossy\r\nStream size                 : 79.4 MiB (12%)\r\nTitle                       : .....::::: TaRa :::::.....\r\nLanguage                    : Hindi\r\nDefault                     : Yes\r\nForced                      : No\r\n=================================================================== <a href=\"\nhttps://www.jiopic.com/image/YXQ7S\" rel=\"nofollow\" target=\"_NEW\">\nhttps://www.jiopic.com/image/YXQ7S</a> <a href=\"\nhttps://www.jiopic.com/image/YXKkE\" rel=\"nofollow\" target=\"_NEW\">\nhttps://www.jiopic.com/image/YXKkE</a> <a href=\"\nhttps://www.jiopic.com/image/YXMxo\" rel=\"nofollow\" target=\"_NEW\">\nhttps://www.jiopic.com/image/YXMxo</a> <a href=\"\nhttps://www.jiopic.com/image/YXOnI\" rel=\"nofollow\" target=\"_NEW\">\nhttps://www.jiopic.com/image/YXOnI</a> <a href=\"\nhttps://www.jiopic.com/image/YXNQ3\" rel=\"nofollow\" target=\"_NEW\">\nhttps://www.jiopic.com/image/YXNQ3</a> <a href=\"\nhttps://www.jiopic.com/image/YXW4e\" rel=\"nofollow\" target=\"_NEW\">\nhttps://www.jiopic.com/image/YXW4e</a> <a href=\"\nhttps://www.jiopic.com/image/YXoa7\" rel=\"nofollow\" target=\"_NEW\">\nhttps://www.jiopic.com/image/YXoa7</a> <a href=\"\nhttps://www.jiopic.com/image/YXDB2\" rel=\"nofollow\" target=\"_NEW\">\nhttps://www.jiopic.com/image/YXDB2</a> <a href=\"\nhttps://www.jiopic.com/image/YXJR4\" rel=\"nofollow\" target=\"_NEW\">\nhttps://www.jiopic.com/image/YXJR4</a> <a href=\"\nhttps://www.jiopic.com/image/YXRli\" rel=\"nofollow\" target=\"_NEW\">\nhttps://www.jiopic.com/image/YXRli</a> <a href=\"\nhttps://www.jiopic.com/image/YXtxF\" rel=\"nofollow\" target=\"_NEW\">\nhttps://www.jiopic.com/image/YXtxF</a> <a href=\"\nhttps://www.jiopic.com/image/YXHQt\" rel=\"nofollow\" target=\"_NEW\">\nhttps://www.jiopic.com/image/YXHQt</a> <a href=\"\nhttps://www.jiopic.com/image/YXPuz\" rel=\"nofollow\" target=\"_NEW\">\nhttps://www.jiopic.com/image/YXPuz</a> <a href=\"\nhttps://www.jiopic.com/image/YXGC1\" rel=\"nofollow\" target=\"_NEW\">\nhttps://www.jiopic.com/image/YXGC1</a> <a href=\"\nhttps://www.jiopic.com/image/YX4kv\" rel=\"nofollow\" target=\"_NEW\">\nhttps://www.jiopic.com/image/YX4kv</a> <a href=\"\nhttps://www.jiopic.com/image/YXC7D\" rel=\"nofollow\" target=\"_NEW\">\nhttps://www.jiopic.com/image/YXC7D</a>","last_updated":"2017-06-11T12:05:21.571Z","parsed":{"xt":"urn:btih:68a1ca8cd0b8ac280ca037033b6943db4c5b9fea","dn":"Spanish Beauty - A Beautiful Wife 2010 Hindi Dubbed 720p WEB-DL ","tr":["udp://exodus.desync.com:6969","udp://open.demonii.com:1337","udp://tracker.coppersurfer.tk:6969","udp://tracker.leechers-paradise.org:6969","udp://zer0day.ch:1337"],"infoHash":"68a1ca8cd0b8ac280ca037033b6943db4c5b9fea","infoHashBuffer":{"type":"Buffer","data":[104,161,202,140,208,184,172,40,12,160,55,3,59,105,67,219,76,91,159,234]},"name":"Spanish Beauty - A Beautiful Wife 2010 Hindi Dubbed 720p WEB-DL ","announce":["udp://exodus.desync.com:6969","udp://open.demonii.com:1337","udp://tracker.coppersurfer.tk:6969","udp://tracker.leechers-paradise.org:6969","udp://zer0day.ch:1337"],"urlList":[]}}